<mxfile host="app.diagrams.net" modified="2024-05-09T22:01:53.354Z" agent="Mozilla/5.0 (Macintosh; Intel Mac OS X 10_15_7) AppleWebKit/537.36 (KHTML, like Gecko) Chrome/124.0.0.0 Safari/537.36" etag="fFCWz3U7OQX6i3i3Yk70" version="24.3.1" type="device">
  <diagram name="Page-1" id="XWV96WsuD3gEZZso5NtV">
    <mxGraphModel dx="794" dy="1099" grid="1" gridSize="10" guides="1" tooltips="1" connect="1" arrows="1" fold="1" page="1" pageScale="1" pageWidth="850" pageHeight="1100" math="0" shadow="0">
      <root>
        <mxCell id="0" />
        <mxCell id="1" parent="0" />
      </root>
    </mxGraphModel>
  </diagram>
</mxfile>
